:FULLY-SPECIFIED
:FORCE-ALL-JOINTS-BE-3DOF
:DEGREES
211
root 8.33032 16.5057 -7.87084 8.02144 0.0992145 -5.76998
lfemur -43.9644 -3.02121 -10.4458
ltibia 20.6764 0 0
lfoot -17.0544 15.5005 0
ltoes -15.0271 0 0
rfemur 10.2027 5.52875 31.4129
rtibia 1.90833e-14 0 0
rfoot -12.3628 5.48057 0
rtoes -7.94378 0 0
lowerback -7.13788 2.38145 3.2314
upperback -0.881891 2.79721 3.76278
thorax 3.05436 1.41186 2.3506
lowerneck -16.0094 -6.48103 -14.5454
upperneck 14.841 -8.22255 14.9955
head 8.51353 -3.37244 6.49326
lclavicle -4.37326e-14 -1.11319e-14 0
lhumerus -50.7834 -11.0215 97.2238
lradius 26.7843 0 0
lwrist 9.87187 0 0
lhand -12.6626 -24.8796 0
lfingers 7.12502 0 0
lthumb 13.4184 4.66819 0
rclavicle -4.37326e-14 -1.11319e-14 0
rhumerus -36.9024 12.3182 -82.4905
rradius 53.1376 0 0
rwrist -27.207 0 0
rhand -32.5618 -28.7367 0
rfingers 7.12502 0 0
rthumb -5.79114 -58.6376 0
212
root 8.35408 16.486 -7.67764 8.17159 -0.273249 -5.97604
lfemur -44.3123 -3.06134 -10.011
ltibia 20.3878 0 0
lfoot -17.0886 15.8229 0
ltoes -15.8601 0 0
rfemur 11.162 5.66048 31.5011
rtibia -0.76287 0 0
rfoot -12.0651 5.71304 0
rtoes -8.44509 0 0
lowerback -7.35869 2.47116 3.38292
upperback -0.891963 2.89116 3.79043
thorax 3.17175 1.46021 2.31476
lowerneck -15.8792 -6.44324 -14.5652
upperneck 14.7468 -8.17683 15.0203
head 8.45348 -3.35587 6.51097
lclavicle -3.19625e-14 -3.92872e-15 0
lhumerus -50.8546 -10.8662 97.0901
lradius 26.4756 0 0
lwrist 9.22143 0 0
lhand -13.1741 -26.5293 0
lfingers 7.12502 0 0
lthumb 12.9251 3.04508 0
rclavicle -3.19625e-14 -3.92872e-15 0
rhumerus -37.1868 12.5396 -82.8562
rradius 53.2897 0 0
rwrist -27.1567 0 0
rhand -32.3663 -28.6517 0
rfingers 7.12502 0 0
rthumb -5.60238 -58.5575 0
213
root 8.38543 16.458 -7.43135 8.34756 -0.725926 -6.20012
lfemur -44.7124 -2.744 -9.7701
ltibia 20.3366 0 0
lfoot -16.9594 15.9336 0
ltoes -17.1206 0 0
rfemur 12.0231 5.83782 31.576
rtibia -0.976474 0 0
rfoot -12.0501 5.99843 0
rtoes -9.21788 0 0
lowerback -7.59434 2.57065 3.53329
upperback -0.901727 2.99581 3.81177
thorax 3.29843 1.514 2.27612
lowerneck -15.6984 -6.38688 -14.5768
upperneck 14.6064 -8.11316 15.0664
head 8.36683 -3.33083 6.53684
lclavicle -1.1754e-14 7.02376e-15 0
lhumerus -50.8874 -10.5344 96.7737
lradius 26.0573 0 0
lwrist 8.13025 0 0
lhand -13.9356 -29.0187 0
lfingers 7.12502 0 0
lthumb 12.1906 0.594876 0
rclavicle -1.1754e-14 7.02376e-15 0
rhumerus -37.5599 12.8009 -83.3283
rradius 53.4318 0 0
rwrist -27.0485 0 0
rhand -32.1282 -28.6436 0
rfingers 7.12502 0 0
rthumb -5.37245 -58.5553 0
214
root 8.41741 16.4288 -7.1841 8.51721 -1.17038 -6.40675
lfemur -45.0981 -2.26249 -9.66708
ltibia 20.4192 0 0
lfoot -16.7515 15.9183 0
ltoes -18.5773 0 0
rfemur 12.7117 6.02054 31.6344
rtibia -0.8239 0 0
rfoot -12.2173 6.28149 0
rtoes -10.0728 0 0
lowerback -7.81237 2.66522 3.66628
upperback -0.908439 3.09558 3.82568
thorax 3.41834 1.56528 2.23886
lowerneck -15.5022 -6.32647 -14.5857
upperneck 14.4463 -8.04666 15.1237
head 8.27093 -3.30405 6.56629
lclavicle 1.20436e-14 1.96549e-14 0
lhumerus -50.8912 -10.1388 96.3897
lradius 25.6242 0 0
lwrist 6.91801 0 0
lhand -14.8153 -31.8281 0
lfingers 7.12502 0 0
lthumb 11.3422 -2.16893 0
rclavicle 1.20436e-14 1.96549e-14 0
rhumerus -37.9396 13.0555 -83.8066
rradius 53.5599 0 0
rwrist -26.9237 0 0
rhand -31.8868 -28.6691 0
rfingers 7.12502 0 0
rthumb -5.13944 -58.5865 0
215
root 8.44304 16.4055 -6.98801 8.64844 -1.51818 -6.56047
lfemur -45.4025 -1.8101 -9.6461
ltibia 20.5315 0 0
lfoot -16.5496 15.8631 0
ltoes -19.9988 0 0
rfemur 13.1539 6.16839 31.673
rtibia -0.488237 0 0
rfoot -12.4658 6.50697 0
rtoes -10.8207 0 0
lowerback -7.98032 2.74018 3.76568
upperback -0.909356 3.17486 3.83103
thorax 3.51544 1.60606 2.20714
lowerneck -15.3261 -6.27652 -14.5971
upperneck 14.2932 -7.99246 15.1818
head 8.18311 -3.28226 6.59473
lclavicle 3.45812e-14 3.18939e-14 0
lhumerus -50.8751 -9.79212 96.0534
lradius 25.2716 0 0
lwrist 5.90435 0 0
lhand -15.6811 -34.4375 0
lfingers 7.12502 0 0
lthumb 10.5071 -4.73285 0
rclavicle 3.45812e-14 3.18939e-14 0
rhumerus -38.244 13.2573 -84.191
rradius 53.6698 0 0
rwrist -26.8234 0 0
rhand -31.6818 -28.6848 0
rfingers 7.12502 0 0
rthumb -4.94146 -58.6071 0
216
root 8.45533 16.3953 -6.8952 8.70914 -1.68088 -6.62581
lfemur -45.559 -1.58012 -9.65125
ltibia 20.5698 0 0
lfoot -16.4383 15.8537 0
ltoes -21.1537 0 0
rfemur 13.2756 6.24113 31.6887
rtibia -0.152574 0 0
rfoot -12.6952 6.61963 0
rtoes -11.2721 0 0
lowerback -8.06571 2.78085 3.81526
upperback -0.901733 3.21806 3.8267
thorax 3.5737 1.62836 2.18516
lowerneck -15.2052 -6.25155 -14.6165
upperneck 14.1737 -7.96569 15.2307
head 8.12074 -3.27215 6.61758
lclavicle 5.10096e-14 4.16703e-14 0
lhumerus -50.8485 -9.60706 95.8799
lradius 25.0943 0 0
lwrist 5.40895 0 0
lhand -16.4014 -36.3275 0
lfingers 7.12502 0 0
lthumb 9.81253 -6.58338 0
rclavicle 5.10096e-14 4.16703e-14 0
rhumerus -38.3913 13.3597 -84.3813
rradius 53.7576 0 0
rwrist -26.7889 0 0
rhand -31.5525 -28.6474 0
rfingers 7.12502 0 0
rthumb -4.8166 -58.5727 0
217
root 8.44732 16.4053 -6.9578 8.66718 -1.57004 -6.56732
lfemur -45.5009 -1.76584 -9.62666
ltibia 20.4302 0 0
lfoot -16.5025 15.9762 0
ltoes -21.8105 0 0
rfemur 13.0026 6.19851 31.678
rtibia -4.45278e-14 0 0
rfoot -12.8046 6.5642 0
rtoes -11.2378 0 0
lowerback -8.03609 2.77254 3.79881
upperback -0.882829 3.20958 3.81157
thorax 3.57706 1.62421 2.17708
lowerneck -15.1749 -6.26607 -14.6491
upperneck 14.1145 -7.9815 15.2601
head 8.10115 -3.28047 6.63024
lclavicle 5.64797e-14 4.69132e-14 0
lhumerus -50.8206 -9.69637 95.9845
lradius 25.1876 0 0
lwrist 5.75146 0 0
lhand -16.844 -36.978 0
lfingers 7.12502 0 0
lthumb 9.38584 -7.20702 0
rclavicle 5.64797e-14 4.69132e-14 0
rhumerus -38.2995 13.3165 -84.2773
rradius 53.8193 0 0
rwrist -26.8615 0 0
rhand -31.5384 -28.5135 0
rfingers 7.12502 0 0
rthumb -4.80298 -58.4391 0
218
root 8.47441 16.374 -6.75235 8.80634 -1.91638 -6.73032
lfemur -45.7294 -1.02723 -9.83164
ltibia 20.9887 0 0
lfoot -16.0911 15.5413 0
ltoes -20.6925 0 0
rfemur 13.6434 6.34 31.6889
rtibia -3.98674e-14 0 0
rfoot -12.7087 6.74821 0
rtoes -11.5589 0 0
lowerback -8.13752 2.80493 3.84655
upperback -0.932351 3.24318 3.83951
thorax 3.58268 1.64093 2.18686
lowerneck -15.2089 -6.21608 -14.5663
upperneck 14.216 -7.92898 15.2125
head 8.12633 -3.25319 6.60876
lclavicle 5.12739e-14 3.83498e-14 0
lhumerus -50.8683 -9.35161 95.5982
lradius 24.8745 0 0
lwrist 4.64277 0 0
lhand -16.0301 -36.1585 0
lfingers 7.12502 0 0
lthumb 10.1702 -6.43926 0
rclavicle 5.12739e-14 3.83498e-14 0
rhumerus -38.6091 13.4504 -84.6317
rradius 53.6593 0 0
rwrist -26.6402 0 0
rhand -31.5307 -28.8816 0
rfingers 7.12502 0 0
rthumb -4.79558 -58.8074 0
219
root 8.50954 16.3313 -6.48885 8.98723 -2.34568 -6.93015
lfemur -45.9977 0.0812678 -10.2388
ltibia 21.9422 0 0
lfoot -15.3903 14.8055 0
ltoes -18.4349 0 0
rfemur 14.4629 6.51509 31.6804
rtibia -2.79182e-14 0 0
rfoot -12.5048 6.96055 0
rtoes -11.8291 0 0
lowerback -8.23623 2.82728 3.88043
upperback -1.01412 3.26577 3.87759
thorax 3.55205 1.65163 2.21253
lowerneck -15.3307 -6.1526 -14.4254
upperneck 14.4337 -7.86373 15.1193
head 8.19897 -3.21629 6.56491
lclavicle 3.58604e-14 2.06589e-14 0
lhumerus -50.9455 -8.90425 95.0766
lradius 24.4986 0 0
lwrist 3.22111 0 0
lhand -14.424 -33.9347 0
lfingers 7.12502 0 0
lthumb 11.7185 -4.31459 0
rclavicle 3.58604e-14 2.06589e-14 0
rhumerus -39.0047 13.5826 -85.0684
rradius 53.3425 0 0
rwrist -26.3102 0 0
rhand -31.597 -29.4866 0
rfingers 7.12502 0 0
rthumb -4.8596 -59.4109 0
220
root 8.545 16.2867 -6.22351 9.16691 -2.7746 -7.12976
lfemur -46.2433 1.27269 -10.7109
ltibia 22.9971 0 0
lfoot -14.6601 13.9708 0
ltoes -15.6901 0 0
rfemur 15.2919 6.69089 31.6655
rtibia -1.25234e-14 0 0
rfoot -12.2711 7.16531 0
rtoes -12.0297 0 0
lowerback -8.31769 2.84046 3.90108
upperback -1.10433 3.27862 3.91993
thorax 3.50219 1.65721 2.24774
lowerneck -15.49 -6.08803 -14.2652
upperneck 14.6986 -7.79782 15.0059
head 8.292 -3.17792 6.51144
lclavicle 1.54213e-14 -1.01875e-15 0
lhumerus -51.029 -8.44249 94.5299
lradius 24.1248 0 0
lwrist 1.73903 0 0
lhand -12.4988 -31.0864 0
lfingers 7.12502 0 0
lthumb 13.5742 -1.58384 0
rclavicle 1.54213e-14 -1.01875e-15 0
rhumerus -39.4022 13.7031 -85.5005
rradius 52.9721 0 0
rwrist -25.9528 0 0
rhand -31.7013 -30.1695 0
rfingers 7.12502 0 0
rthumb -4.96029 -60.0915 0
